HIERARCHY
ROOT joint_Root
{
	OFFSET 0.0 0.0 0.0
	CHANNELS 6 Xposition Yposition Zposition Zrotation Xrotation Yrotation 
	JOINT Hips
	{
		OFFSET 4.5925 91.4895 -427.239
		CHANNELS 6 Xposition Yposition Zposition Zrotation Xrotation Yrotation 
		JOINT Spine
		{
			OFFSET 15.7357 0.0 0.0
			CHANNELS 6 Xposition Yposition Zposition Zrotation Xrotation Yrotation 
			JOINT Chest
			{
				OFFSET 8.98455 -0.406207 0.0
				CHANNELS 6 Xposition Yposition Zposition Zrotation Xrotation Yrotation 
				JOINT Neck
				{
					OFFSET 16.3773 0.0 0.0
					CHANNELS 6 Xposition Yposition Zposition Zrotation Xrotation Yrotation 
					JOINT Head
					{
						OFFSET 6.45672 0.0 0.0
						CHANNELS 6 Xposition Yposition Zposition Zrotation Xrotation Yrotation 
						End Site
						{
							OFFSET 0.0 0.0 0.0
						}
					}
				}
				JOINT Shoulder_L
				{
					OFFSET 12.9942 -0.242716 4.98039
					CHANNELS 6 Xposition Yposition Zposition Zrotation Xrotation Yrotation 
					JOINT UpperArm_L
					{
						OFFSET 5.34809 0.0 0.0
						CHANNELS 6 Xposition Yposition Zposition Zrotation Xrotation Yrotation 
						JOINT LowerArm_L
						{
							OFFSET 24.3286 1.87007e-05 0.0
							CHANNELS 6 Xposition Yposition Zposition Zrotation Xrotation Yrotation 
							JOINT Hand_L
							{
								OFFSET 22.2916 0.0 0.0
								CHANNELS 6 Xposition Yposition Zposition Zrotation Xrotation Yrotation 
								End Site
								{
									OFFSET 0.0 0.0 0.0
								}
							}
						}
					}
				}
				JOINT Shoulder_R
				{
					OFFSET 12.9945 -0.242716 -4.98039
					CHANNELS 6 Xposition Yposition Zposition Zrotation Xrotation Yrotation 
					JOINT UpperArm_R
					{
						OFFSET -5.34813 0.0 0.0
						CHANNELS 6 Xposition Yposition Zposition Zrotation Xrotation Yrotation 
						JOINT LowerArm_R
						{
							OFFSET -24.3289 0.000322201 0.0
							CHANNELS 6 Xposition Yposition Zposition Zrotation Xrotation Yrotation 
							JOINT Hand_R
							{
								OFFSET -22.2915 -0.000108084 0.0
								CHANNELS 6 Xposition Yposition Zposition Zrotation Xrotation Yrotation 
								End Site
								{
									OFFSET 0.0 0.0 0.0
								}
							}
						}
					}
				}
			}
		}
		JOINT UpperLeg_L
		{
			OFFSET -2.19248 -6.46944 0.0
			CHANNELS 6 Xposition Yposition Zposition Zrotation Xrotation Yrotation 
			JOINT LowerLeg_L
			{
				OFFSET 39.0811 0.0 -1.23785e-05
				CHANNELS 6 Xposition Yposition Zposition Zrotation Xrotation Yrotation 
				JOINT Foot_L
				{
					OFFSET 40.9854 0.0 -1.26872e-05
					CHANNELS 6 Xposition Yposition Zposition Zrotation Xrotation Yrotation 
					JOINT Toes_L
					{
						OFFSET 11.7543 0.0 0.0
						CHANNELS 6 Xposition Yposition Zposition Zrotation Xrotation Yrotation 
						End Site
						{
							OFFSET 0.0 0.0 0.0
						}
					}
				}
			}
		}
		JOINT UpperLeg_R
		{
			OFFSET -2.19251 6.46944 0.0
			CHANNELS 6 Xposition Yposition Zposition Zrotation Xrotation Yrotation 
			JOINT LowerLeg_R
			{
				OFFSET -39.0811 -0.00228153 -0.0401928
				CHANNELS 6 Xposition Yposition Zposition Zrotation Xrotation Yrotation 
				JOINT Foot_R
				{
					OFFSET -40.9854 0.0 0.0
					CHANNELS 6 Xposition Yposition Zposition Zrotation Xrotation Yrotation 
					JOINT Toes_R
					{
						OFFSET -11.7543 0.0 0.0
						CHANNELS 6 Xposition Yposition Zposition Zrotation Xrotation Yrotation 
						End Site
						{
							OFFSET 0.0 0.0 0.0
						}
					}
				}
			}
		}
	}
}
MOTION
Frames:	4
Frame Time:	0.0333333
0.000000 0.000000 0.000000 0.000000 0.000000 -0.000000 -2.285340 90.312400 4.893940 89.916500 -0.563959 10.951200 15.735700 0.000005 -0.000001 87.772700 82.793200 -87.964100 8.984550 -0.406207 -0.000000 6.635920 -0.556523 -0.350133 16.377300 -0.000001 -0.000001 3.499110 -4.952640 3.429780 6.456720 -0.000001 -0.000000 -12.908000 -3.738020 0.954483 12.994200 -0.242716 4.980390 -91.954600 6.933380 -74.214100 5.348090 -0.000007 -0.000001 -62.946600 45.015400 -14.412900 24.328600 0.000019 0.000005 8.836360 21.272700 -23.194400 22.291600 -0.000001 0.000005 9.876090 5.279930 0.628021 12.994500 -0.242716 -4.980390 88.214300 11.660800 -81.231300 -5.348130 -0.000001 -0.000004 -62.638300 28.340500 -9.948350 -24.328900 0.000322 -0.000009 -0.439961 -1.352750 -17.978100 -22.291500 -0.000108 -0.000004 13.237000 5.381150 -2.334280 -2.192480 -6.469440 -0.000000 -173.862000 -8.258390 4.718690 39.081100 -0.000007 -0.000012 -0.195071 0.343178 29.615300 40.985400 -0.000006 -0.000013 -1.067550 6.058550 -73.195500 11.754300 -0.000000 0.000003 -0.000081 -0.000862 -16.610800 -2.192510 6.469440 -0.000001 173.568000 18.561700 -173.262000 -39.081100 -0.002282 -0.040193 -0.153388 0.280680 29.172900 -40.985400 0.000008 0.000006 3.456230 10.113600 -74.558700 -11.754300 -0.000006 -0.000006 -0.004003 -0.051470 -18.666800
0.000000 0.000000 0.000000 0.000000 0.000000 -0.000000 -2.297760 90.311700 4.907100 89.929300 -0.459740 10.848300 15.735700 0.000005 -0.000001 87.574600 82.817800 -87.802400 8.984550 -0.406207 -0.000000 6.584710 -0.603650 -0.420361 16.377300 -0.000001 -0.000001 3.525070 -5.022320 3.369850 6.456720 -0.000001 -0.000000 -12.810500 -3.775610 0.738338 12.994200 -0.242716 4.980390 -91.943500 6.861860 -74.144600 5.348090 -0.000007 -0.000001 -62.349900 44.551200 -15.023200 24.328600 0.000019 0.000005 8.771380 21.209400 -23.097900 22.291600 -0.000001 0.000005 10.121400 5.276420 0.723474 12.994500 -0.242716 -4.980390 88.122900 11.767500 -80.870600 -5.348130 -0.000001 -0.000004 -61.980700 24.504800 -10.159000 -24.328900 0.000322 -0.000009 -0.586748 -1.836640 -17.691300 -22.291500 -0.000108 -0.000004 13.627300 5.383950 -2.423280 -2.192480 -6.469440 -0.000000 -173.890000 -8.226090 4.599610 39.081100 -0.000007 -0.000012 -0.194398 0.341921 29.620600 40.985400 -0.000006 -0.000013 -1.063690 6.091130 -73.190300 11.754300 -0.000000 0.000003 -0.000092 -0.000962 -16.614500 -2.192510 6.469440 -0.000001 173.660000 18.553800 -173.382000 -39.081100 -0.002282 -0.040193 -0.138537 0.253625 29.216300 -40.985400 0.000008 0.000006 3.688710 9.882640 -74.644000 -11.754300 -0.000006 -0.000006 -0.003958 -0.051002 -18.647700
0.000000 0.000000 0.000000 0.000000 0.000000 -0.000000 -2.294500 90.313100 4.922950 89.955500 -0.343201 10.764200 15.735700 0.000005 -0.000001 87.040500 82.853500 -87.307500 8.984550 -0.406207 -0.000000 6.506700 -0.732769 -0.491817 16.377300 -0.000001 -0.000001 3.704620 -5.027600 3.299280 6.456720 -0.000001 -0.000000 -12.719500 -3.745300 0.524632 12.994200 -0.242716 4.980390 -91.904000 6.734890 -74.173700 5.348090 -0.000007 -0.000001 -62.008300 43.811400 -15.316900 24.328600 0.000019 0.000005 8.738740 21.245300 -22.986500 22.291600 -0.000001 0.000005 10.220900 5.275060 0.761114 12.994500 -0.242716 -4.980390 88.050600 11.782000 -80.536300 -5.348130 -0.000001 -0.000004 -60.867000 20.430000 -10.715000 -24.328900 0.000322 -0.000009 -0.724128 -2.302090 -17.442500 -22.291500 -0.000108 -0.000004 14.124200 5.383880 -2.420380 -2.192480 -6.469440 -0.000000 -173.928000 -8.223750 4.517490 39.081100 -0.000007 -0.000012 -0.192470 0.338763 29.603600 40.985400 -0.000006 -0.000013 -1.040480 6.162060 -73.180500 11.754300 -0.000000 0.000003 -0.000087 -0.000911 -16.612600 -2.192510 6.469440 -0.000001 173.722000 18.518100 -173.478000 -39.081100 -0.002282 -0.040193 -0.127112 0.232910 29.246300 -40.985400 0.000008 0.000006 3.855650 9.645650 -74.707400 -11.754300 -0.000006 -0.000006 -0.003950 -0.050918 -18.644300
0.000000 0.000000 0.000000 0.000000 0.000000 -0.000000 -2.272350 90.318600 4.918420 89.936600 -0.333703 10.616100 15.735700 0.000005 -0.000001 86.575400 82.929200 -86.869700 8.984550 -0.406207 -0.000000 6.348780 -0.838642 -0.541343 16.377300 -0.000001 -0.000001 3.902670 -5.023620 3.314090 6.456720 -0.000001 -0.000000 -12.492900 -3.618840 0.256259 12.994200 -0.242716 4.980390 -91.872400 6.623730 -74.177000 5.348090 -0.000007 -0.000001 -61.534300 43.293100 -15.591400 24.328600 0.000019 0.000005 8.639000 21.174200 -22.812800 22.291600 -0.000001 0.000005 10.310900 5.270990 0.871354 12.994500 -0.242716 -4.980390 87.987400 11.742200 -80.202800 -5.348130 -0.000001 -0.000004 -59.187300 16.400300 -11.614500 -24.328900 0.000322 -0.000009 -0.741265 -2.365020 -17.384900 -22.291500 -0.000108 -0.000004 14.734600 5.381690 -2.351530 -2.192480 -6.469440 -0.000000 -173.953000 -8.207940 4.351170 39.081100 -0.000007 -0.000012 -0.192857 0.339369 29.609100 40.985400 -0.000006 -0.000013 -1.032200 6.141400 -73.173500 11.754300 -0.000000 0.000003 -0.000084 -0.000885 -16.611600 -2.192510 6.469440 -0.000001 173.826000 18.494300 -173.653000 -39.081100 -0.002282 -0.040193 -0.115388 0.211945 29.249300 -40.985400 0.000008 0.000006 3.976580 9.529900 -74.721400 -11.754300 -0.000006 -0.000006 -0.003954 -0.050958 -18.645900
